# xmcd
# Track frame offsets:
# 150
# 13235
# 23857
# 35395
# 48717
# 61053
# 73083
# 86554
# 97020
# 109854
# 123688
# 134129
#
# Disc length: 1929 seconds
# Revision: 0
# Processed by: cddbd v1.5.2PL0 Copyright (c) Steve Scherf et al.
# Submitted via: VisiTrax 2.11.2.271 - For more info visit www.synapsa.com
#
DISCID=b107870c
DTITLE=Various Artist - Vintage Country Music
DYEAR=1900
DGENRE=Country
TTITLE0=Glen Campbell - Rhinestone Cowboy
TTITLE1=BJ Spears - I'm So Lonesome I Could Cry
TTITLE2=B. Bare - That 's How I Got To Memphis
TTITLE3=N. Thompson - The Wild Side Of Life
TTITLE4=Willie Nelson - Shelter Of Your Arms
TTITLE5=Jim Reeves - Mexican Joe
TTITLE6=Roy Clark - Come Live With Me
TTITLE7=Overstreet - Ann (Don't Go Running)
TTITLE8=Lynn Anderson - Rose Garden
TTITLE9=Dave Dudley - The Watering Hole
TTITLE10=Faron Young - If You Ain't Lovin
TTITLE11=B. Walker - Charlies Shoes
EXTD=
EXTT0=
EXTT1=
EXTT2=
EXTT3=
EXTT4=
EXTT5=
EXTT6=
EXTT7=
EXTT8=
EXTT9=
EXTT10=
EXTT11=
PLAYORDER=
